{
  "asset": {
    "version": "2.0",
    "generator": "THREE.GLTFExporter"
  },
  "scenes": [
    {
      "nodes": [
        10
      ]
    }
  ],
  "scene": 0,
  "nodes": [
    {
      "matrix": [
        -0.2908647428269262,
        -0.055189063886274425,
        -0.9551712048106182,
        0,
        0.5663932381446841,
        0.7946722584579202,
        -0.21839122503485697,
        0,
        0.7711008773539234,
        -0.6045247675783045,
        -0.19988344806390224,
        0,
        4.076245307922363,
        5.903861999511719,
        -1.0054539442062378,
        1
      ],
      "name": "Light",
      "extras": {
        "name": "Light"
      }
    },
    {
      "matrix": [
        0.6859206666375535,
        -4.011331711240018e-9,
        -0.7276763385868836,
        0,
        0.6515582236083066,
        0.4452714146389205,
        0.6141703952861253,
        0,
        0.32401347963873484,
        -0.8953956629320512,
        0.30542086411130853,
        0,
        7.358891487121582,
        4.958309173583984,
        6.925790786743164,
        1
      ],
      "name": "Camera",
      "extras": {
        "name": "Camera"
      }
    },
    {
      "matrix": [
        -1.0000001001303147,
        1.629206926024588e-7,
        1.6292067886927222e-7,
        0,
        -1.629206926024588e-7,
        -1.3435885648505064e-7,
        -1.0000000500651538,
        0,
        -1.6292067886927222e-7,
        -1.0000000500651538,
        3.422854177870249e-8,
        0,
        0.6857999563217163,
        7.619999885559082,
        -0.016256000846624374,
        1
      ],
      "name": "Girder",
      "extras": {
        "name": "Girder"
      },
      "mesh": 0
    },
    {
      "name": "Deck",
      "extras": {
        "name": "Deck"
      },
      "mesh": 1
    },
    {
      "matrix": [
        1,
        0,
        0,
        0,
        0,
        1,
        0,
        0,
        0,
        0,
        1,
        0,
        7.955021858215332,
        0,
        -0.10083799809217453,
        1
      ],
      "name": "Reinforcements",
      "extras": {
        "name": "Reinforcements"
      },
      "mesh": 2
    },
    {
      "matrix": [
        -1,
        3.2584136988589307e-7,
        0,
        0,
        -3.2584136988589307e-7,
        -1,
        0,
        0,
        0,
        0,
        1,
        0,
        8.229599952697754,
        7.62000036239624,
        -0.783784031867981,
        1
      ],
      "name": "Barrier",
      "extras": {
        "name": "Barrier"
      },
      "mesh": 3
    },
    {
      "matrix": [
        1,
        0,
        0,
        0,
        0,
        1,
        0,
        0,
        0,
        0,
        1,
        0,
        0,
        0,
        -0.3937000036239624,
        1
      ],
      "name": "Barrier001",
      "extras": {
        "name": "Barrier.001"
      },
      "mesh": 4
    },
    {
      "matrix": [
        -1.0000001001303147,
        1.629206926024588e-7,
        1.6292067886927222e-7,
        0,
        -1.629206926024588e-7,
        -1.3435885648505064e-7,
        -1.0000000500651538,
        0,
        -1.6292067886927222e-7,
        -1.0000000500651538,
        3.422854177870249e-8,
        0,
        2.9718000888824463,
        7.619999885559082,
        -0.016256000846624374,
        1
      ],
      "name": "Girder001",
      "extras": {
        "name": "Girder.001"
      },
      "mesh": 5
    },
    {
      "matrix": [
        -1.0000001001303147,
        1.629206926024588e-7,
        1.6292067886927222e-7,
        0,
        -1.629206926024588e-7,
        -1.3435885648505064e-7,
        -1.0000000500651538,
        0,
        -1.6292067886927222e-7,
        -1.0000000500651538,
        3.422854177870249e-8,
        0,
        5.257800102233887,
        7.619999885559082,
        -0.016256000846624374,
        1
      ],
      "name": "Girder002",
      "extras": {
        "name": "Girder.002"
      },
      "mesh": 6
    },
    {
      "matrix": [
        -1.0000001001303147,
        1.629206926024588e-7,
        1.6292067886927222e-7,
        0,
        -1.629206926024588e-7,
        -1.3435885648505064e-7,
        -1.0000000500651538,
        0,
        -1.6292067886927222e-7,
        -1.0000000500651538,
        3.422854177870249e-8,
        0,
        7.543799877166748,
        7.619999885559082,
        -0.016256000846624374,
        1
      ],
      "name": "Girder003",
      "extras": {
        "name": "Girder.003"
      },
      "mesh": 7
    },
    {
      "name": "Bridge Assembly.glb",
      "children": [
        0,
        1,
        2,
        3,
        4,
        5,
        6,
        7,
        8,
        9
      ]
    }
  ],
  "bufferViews": [
    {
      "buffer": 0,
      "byteOffset": 0,
      "byteLength": 960,
      "target": 34962,
      "byteStride": 12
    },
    {
      "buffer": 0,
      "byteOffset": 960,
      "byteLength": 960,
      "target": 34962,
      "byteStride": 12
    },
    {
      "buffer": 0,
      "byteOffset": 1920,
      "byteLength": 264,
      "target": 34963
    },
    {
      "buffer": 0,
      "byteOffset": 2184,
      "byteLength": 2472,
      "target": 34962,
      "byteStride": 12
    },
    {
      "buffer": 0,
      "byteOffset": 4656,
      "byteLength": 2472,
      "target": 34962,
      "byteStride": 12
    },
    {
      "buffer": 0,
      "byteOffset": 7128,
      "byteLength": 600,
      "target": 34963
    },
    {
      "buffer": 0,
      "byteOffset": 7728,
      "byteLength": 711456,
      "target": 34962,
      "byteStride": 12
    },
    {
      "buffer": 0,
      "byteOffset": 719184,
      "byteLength": 711456,
      "target": 34962,
      "byteStride": 12
    },
    {
      "buffer": 0,
      "byteOffset": 1430640,
      "byteLength": 141696,
      "target": 34963
    },
    {
      "buffer": 0,
      "byteOffset": 1572336,
      "byteLength": 480,
      "target": 34962,
      "byteStride": 12
    },
    {
      "buffer": 0,
      "byteOffset": 1572816,
      "byteLength": 480,
      "target": 34962,
      "byteStride": 12
    },
    {
      "buffer": 0,
      "byteOffset": 1573296,
      "byteLength": 120,
      "target": 34963
    },
    {
      "buffer": 0,
      "byteOffset": 1573416,
      "byteLength": 480,
      "target": 34962,
      "byteStride": 12
    },
    {
      "buffer": 0,
      "byteOffset": 1573896,
      "byteLength": 480,
      "target": 34962,
      "byteStride": 12
    },
    {
      "buffer": 0,
      "byteOffset": 1574376,
      "byteLength": 120,
      "target": 34963
    },
    {
      "buffer": 0,
      "byteOffset": 1574496,
      "byteLength": 960,
      "target": 34962,
      "byteStride": 12
    },
    {
      "buffer": 0,
      "byteOffset": 1575456,
      "byteLength": 960,
      "target": 34962,
      "byteStride": 12
    },
    {
      "buffer": 0,
      "byteOffset": 1576416,
      "byteLength": 960,
      "target": 34962,
      "byteStride": 12
    },
    {
      "buffer": 0,
      "byteOffset": 1577376,
      "byteLength": 960,
      "target": 34962,
      "byteStride": 12
    },
    {
      "buffer": 0,
      "byteOffset": 1578336,
      "byteLength": 960,
      "target": 34962,
      "byteStride": 12
    },
    {
      "buffer": 0,
      "byteOffset": 1579296,
      "byteLength": 960,
      "target": 34962,
      "byteStride": 12
    }
  ],
  "buffers": [
    {
      "byteLength": 1580256,
      "uri": "data:application/octet-stream;base64,"
    }
  ],
  "accessors": [
    {
      "bufferView": 0,
      "componentType": 5126,
      "count": 80,
      "max": [
        0.12699998915195465,
        0,
        7.619999885559082
      ],
      "min": [
        -0.12700001895427704,
        -0.6794499754905701,
        -7.619999885559082
      ],
      "type": "VEC3"
    },
    {
      "bufferView": 1,
      "componentType": 5126,
      "count": 80,
      "max": [
        1,
        1,
        1
      ],
      "min": [
        -1,
        -1,
        -1
      ],
      "type": "VEC3"
    },
    {
      "bufferView": 2,
      "componentType": 5123,
      "count": 132,
      "max": [
        79
      ],
      "min": [
        0
      ],
      "type": "SCALAR"
    },
    {
      "bufferView": 3,
      "componentType": 5126,
      "count": 206,
      "max": [
        8.22960090637207,
        15.239999771118164,
        0
      ],
      "min": [
        0,
        -7.105427357601002e-15,
        -0.39370036125183105
      ],
      "type": "VEC3"
    },
    {
      "bufferView": 4,
      "componentType": 5126,
      "count": 206,
      "max": [
        1,
        1,
        1
      ],
      "min": [
        -1,
        -1,
        -1
      ],
      "type": "VEC3"
    },
    {
      "bufferView": 5,
      "componentType": 5123,
      "count": 300,
      "max": [
        205
      ],
      "min": [
        0
      ],
      "type": "SCALAR"
    },
    {
      "bufferView": 6,
      "componentType": 5126,
      "count": 59288,
      "max": [
        0.2745780944824219,
        15.239999771118164,
        0.019050000235438347
      ],
      "min": [
        -7.955021858215332,
        0,
        -0.09525000303983688
      ],
      "type": "VEC3"
    },
    {
      "bufferView": 7,
      "componentType": 5126,
      "count": 59288,
      "max": [
        1,
        1,
        0.9962063431739807
      ],
      "min": [
        -1,
        -1,
        -0.9962063431739807
      ],
      "type": "VEC3"
    },
    {
      "bufferView": 8,
      "componentType": 5123,
      "count": 70848,
      "max": [
        59287
      ],
      "min": [
        0
      ],
      "type": "SCALAR"
    },
    {
      "bufferView": 9,
      "componentType": 5126,
      "count": 40,
      "max": [
        0.43179917335510254,
        7.62000036239624,
        0.39008402824401855
      ],
      "min": [
        -8.344650268554688e-7,
        -7.619999408721924,
        -0.39008402824401855
      ],
      "type": "VEC3"
    },
    {
      "bufferView": 10,
      "componentType": 5126,
      "count": 40,
      "max": [
        1,
        1,
        1
      ],
      "min": [
        -1,
        -1,
        -1
      ],
      "type": "VEC3"
    },
    {
      "bufferView": 11,
      "componentType": 5123,
      "count": 60,
      "max": [
        39
      ],
      "min": [
        0
      ],
      "type": "SCALAR"
    },
    {
      "bufferView": 12,
      "componentType": 5126,
      "count": 40,
      "max": [
        0.4318000078201294,
        15.239999771118164,
        0
      ],
      "min": [
        0,
        0,
        -0.7801680564880371
      ],
      "type": "VEC3"
    },
    {
      "bufferView": 13,
      "componentType": 5126,
      "count": 40,
      "max": [
        1,
        1,
        1
      ],
      "min": [
        -1,
        -1,
        -1
      ],
      "type": "VEC3"
    },
    {
      "bufferView": 14,
      "componentType": 5123,
      "count": 60,
      "max": [
        39
      ],
      "min": [
        0
      ],
      "type": "SCALAR"
    },
    {
      "bufferView": 15,
      "componentType": 5126,
      "count": 80,
      "max": [
        0.12699998915195465,
        0,
        7.619999885559082
      ],
      "min": [
        -0.12700001895427704,
        -0.6794499754905701,
        -7.619999885559082
      ],
      "type": "VEC3"
    },
    {
      "bufferView": 16,
      "componentType": 5126,
      "count": 80,
      "max": [
        1,
        1,
        1
      ],
      "min": [
        -1,
        -1,
        -1
      ],
      "type": "VEC3"
    },
    {
      "bufferView": 17,
      "componentType": 5126,
      "count": 80,
      "max": [
        0.12699998915195465,
        0,
        7.619999885559082
      ],
      "min": [
        -0.12700001895427704,
        -0.6794499754905701,
        -7.619999885559082
      ],
      "type": "VEC3"
    },
    {
      "bufferView": 18,
      "componentType": 5126,
      "count": 80,
      "max": [
        1,
        1,
        1
      ],
      "min": [
        -1,
        -1,
        -1
      ],
      "type": "VEC3"
    },
    {
      "bufferView": 19,
      "componentType": 5126,
      "count": 80,
      "max": [
        0.12699998915195465,
        0,
        7.619999885559082
      ],
      "min": [
        -0.12700001895427704,
        -0.6794499754905701,
        -7.619999885559082
      ],
      "type": "VEC3"
    },
    {
      "bufferView": 20,
      "componentType": 5126,
      "count": 80,
      "max": [
        1,
        1,
        1
      ],
      "min": [
        -1,
        -1,
        -1
      ],
      "type": "VEC3"
    }
  ],
  "materials": [
    {
      "pbrMetallicRoughness": {
        "metallicFactor": 1,
        "roughnessFactor": 1
      }
    }
  ],
  "meshes": [
    {
      "primitives": [
        {
          "mode": 4,
          "attributes": {
            "POSITION": 0,
            "NORMAL": 1
          },
          "indices": 2,
          "material": 0
        }
      ]
    },
    {
      "primitives": [
        {
          "mode": 4,
          "attributes": {
            "POSITION": 3,
            "NORMAL": 4
          },
          "indices": 5,
          "material": 0
        }
      ]
    },
    {
      "primitives": [
        {
          "mode": 4,
          "attributes": {
            "POSITION": 6,
            "NORMAL": 7
          },
          "indices": 8,
          "material": 0
        }
      ]
    },
    {
      "primitives": [
        {
          "mode": 4,
          "attributes": {
            "POSITION": 9,
            "NORMAL": 10
          },
          "indices": 11,
          "material": 0
        }
      ]
    },
    {
      "primitives": [
        {
          "mode": 4,
          "attributes": {
            "POSITION": 12,
            "NORMAL": 13
          },
          "indices": 14,
          "material": 0
        }
      ]
    },
    {
      "primitives": [
        {
          "mode": 4,
          "attributes": {
            "POSITION": 15,
            "NORMAL": 16
          },
          "indices": 2,
          "material": 0
        }
      ]
    },
    {
      "primitives": [
        {
          "mode": 4,
          "attributes": {
            "POSITION": 17,
            "NORMAL": 18
          },
          "indices": 2,
          "material": 0
        }
      ]
    },
    {
      "primitives": [
        {
          "mode": 4,
          "attributes": {
            "POSITION": 19,
            "NORMAL": 20
          },
          "indices": 2,
          "material": 0
        }
      ]
    }
  ]
}