{
  "asset": {
    "version": "2.0",
    "generator": "THREE.GLTFExporter"
  },
  "scenes": [
    {
      "name": "Scene",
      "nodes": [
        9
      ]
    }
  ],
  "scene": 0,
  "nodes": [
    {
      "matrix": [
        -1.0000001001303125,
        1.6292070075910963e-7,
        1.6292067886927132e-7,
        0,
        -1.6292068444580837e-7,
        -8.429368714279839e-8,
        -1.000000050065158,
        0,
        -1.629206788692713e-7,
        -1.0000000500651496,
        8.42937137881516e-8,
        0,
        0.6857999563217163,
        7.619999885559082,
        -0.016256000846624374,
        1
      ],
      "name": "Girder",
      "extras": {
        "name": "Girder"
      },
      "mesh": 0
    },
    {
      "name": "Deck",
      "extras": {
        "name": "Deck"
      },
      "mesh": 1
    },
    {
      "matrix": [
        1,
        0,
        0,
        0,
        0,
        1,
        0,
        0,
        0,
        0,
        1,
        0,
        7.955021858215332,
        0,
        -0.10083799809217453,
        1
      ],
      "name": "Reinforcements001",
      "extras": {
        "name": "Reinforcements.001"
      },
      "mesh": 2
    },
    {
      "matrix": [
        -0.9999999999999996,
        3.2584136988589307e-7,
        0,
        0,
        -3.2584136988589307e-7,
        -0.9999999999999996,
        0,
        0,
        0,
        0,
        1,
        0,
        8.229599952697754,
        7.62000036239624,
        -0.783784031867981,
        1
      ],
      "name": "Barrier",
      "extras": {
        "name": "Barrier"
      },
      "mesh": 3
    },
    {
      "matrix": [
        1,
        0,
        0,
        0,
        0,
        1,
        0,
        0,
        0,
        0,
        1,
        0,
        0,
        0,
        -0.3937000036239624,
        1
      ],
      "name": "Barrier001",
      "extras": {
        "name": "Barrier.001"
      },
      "mesh": 4
    },
    {
      "matrix": [
        -1.0000001001303125,
        1.6292070075910963e-7,
        1.6292067886927132e-7,
        0,
        -1.6292068444580837e-7,
        -8.429368714279839e-8,
        -1.000000050065158,
        0,
        -1.629206788692713e-7,
        -1.0000000500651496,
        8.42937137881516e-8,
        0,
        2.9718000888824463,
        7.619999885559082,
        -0.016256000846624374,
        1
      ],
      "name": "Girder001",
      "extras": {
        "name": "Girder.001"
      },
      "mesh": 5
    },
    {
      "matrix": [
        -1.0000001001303125,
        1.6292070075910963e-7,
        1.6292067886927132e-7,
        0,
        -1.6292068444580837e-7,
        -8.429368714279839e-8,
        -1.000000050065158,
        0,
        -1.629206788692713e-7,
        -1.0000000500651496,
        8.42937137881516e-8,
        0,
        5.257800102233887,
        7.619999885559082,
        -0.016256000846624374,
        1
      ],
      "name": "Girder002",
      "extras": {
        "name": "Girder.002"
      },
      "mesh": 6
    },
    {
      "matrix": [
        -1.0000001001303125,
        1.6292070075910963e-7,
        1.6292067886927132e-7,
        0,
        -1.6292068444580837e-7,
        -8.429368714279839e-8,
        -1.000000050065158,
        0,
        -1.629206788692713e-7,
        -1.0000000500651496,
        8.42937137881516e-8,
        0,
        7.543799877166748,
        7.619999885559082,
        -0.016256000846624374,
        1
      ],
      "name": "Girder003",
      "extras": {
        "name": "Girder.003"
      },
      "mesh": 7
    },
    {
      "name": "Beast_Assembly",
      "extras": {
        "name": "Beast Assembly"
      },
      "children": [
        0,
        1,
        2,
        3,
        4,
        5,
        6,
        7
      ]
    },
    {
      "name": "Bridge Assembly_1.glb",
      "children": [
        8
      ]
    }
  ],
  "bufferViews": [
    {
      "buffer": 0,
      "byteOffset": 0,
      "byteLength": 960,
      "target": 34962,
      "byteStride": 12
    },
    {
      "buffer": 0,
      "byteOffset": 960,
      "byteLength": 960,
      "target": 34962,
      "byteStride": 12
    },
    {
      "buffer": 0,
      "byteOffset": 1920,
      "byteLength": 528,
      "target": 34963
    },
    {
      "buffer": 0,
      "byteOffset": 2448,
      "byteLength": 2472,
      "target": 34962,
      "byteStride": 12
    },
    {
      "buffer": 0,
      "byteOffset": 4920,
      "byteLength": 2472,
      "target": 34962,
      "byteStride": 12
    },
    {
      "buffer": 0,
      "byteOffset": 7392,
      "byteLength": 1200,
      "target": 34963
    },
    {
      "buffer": 0,
      "byteOffset": 8592,
      "byteLength": 711456,
      "target": 34962,
      "byteStride": 12
    },
    {
      "buffer": 0,
      "byteOffset": 720048,
      "byteLength": 711456,
      "target": 34962,
      "byteStride": 12
    },
    {
      "buffer": 0,
      "byteOffset": 1431504,
      "byteLength": 283392,
      "target": 34963
    },
    {
      "buffer": 0,
      "byteOffset": 1714896,
      "byteLength": 480,
      "target": 34962,
      "byteStride": 12
    },
    {
      "buffer": 0,
      "byteOffset": 1715376,
      "byteLength": 480,
      "target": 34962,
      "byteStride": 12
    },
    {
      "buffer": 0,
      "byteOffset": 1715856,
      "byteLength": 240,
      "target": 34963
    },
    {
      "buffer": 0,
      "byteOffset": 1716096,
      "byteLength": 480,
      "target": 34962,
      "byteStride": 12
    },
    {
      "buffer": 0,
      "byteOffset": 1716576,
      "byteLength": 480,
      "target": 34962,
      "byteStride": 12
    },
    {
      "buffer": 0,
      "byteOffset": 1717056,
      "byteLength": 240,
      "target": 34963
    },
    {
      "buffer": 0,
      "byteOffset": 1717296,
      "byteLength": 960,
      "target": 34962,
      "byteStride": 12
    },
    {
      "buffer": 0,
      "byteOffset": 1718256,
      "byteLength": 960,
      "target": 34962,
      "byteStride": 12
    },
    {
      "buffer": 0,
      "byteOffset": 1719216,
      "byteLength": 528,
      "target": 34963
    },
    {
      "buffer": 0,
      "byteOffset": 1719744,
      "byteLength": 960,
      "target": 34962,
      "byteStride": 12
    },
    {
      "buffer": 0,
      "byteOffset": 1720704,
      "byteLength": 960,
      "target": 34962,
      "byteStride": 12
    },
    {
      "buffer": 0,
      "byteOffset": 1721664,
      "byteLength": 528,
      "target": 34963
    },
    {
      "buffer": 0,
      "byteOffset": 1722192,
      "byteLength": 960,
      "target": 34962,
      "byteStride": 12
    },
    {
      "buffer": 0,
      "byteOffset": 1723152,
      "byteLength": 960,
      "target": 34962,
      "byteStride": 12
    },
    {
      "buffer": 0,
      "byteOffset": 1724112,
      "byteLength": 528,
      "target": 34963
    }
  ],
  "buffers": [
    {
      "byteLength": 1724640,
      "uri": "data:application/octet-stream;base64,"
    }
  ],
  "accessors": [
    {
      "bufferView": 0,
      "componentType": 5126,
      "count": 80,
      "max": [
        0.12699998915195465,
        0,
        7.619999885559082
      ],
      "min": [
        -0.12700001895427704,
        -0.6794499754905701,
        -7.619999885559082
      ],
      "type": "VEC3"
    },
    {
      "bufferView": 1,
      "componentType": 5126,
      "count": 80,
      "max": [
        1,
        1,
        1
      ],
      "min": [
        -1,
        -1,
        -1
      ],
      "type": "VEC3"
    },
    {
      "bufferView": 2,
      "componentType": 5125,
      "count": 132,
      "max": [
        79
      ],
      "min": [
        0
      ],
      "type": "SCALAR"
    },
    {
      "bufferView": 3,
      "componentType": 5126,
      "count": 206,
      "max": [
        8.22960090637207,
        15.239999771118164,
        0
      ],
      "min": [
        0,
        -7.105427357601002e-15,
        -0.39370036125183105
      ],
      "type": "VEC3"
    },
    {
      "bufferView": 4,
      "componentType": 5126,
      "count": 206,
      "max": [
        1,
        1,
        1
      ],
      "min": [
        -1,
        -1,
        -1
      ],
      "type": "VEC3"
    },
    {
      "bufferView": 5,
      "componentType": 5125,
      "count": 300,
      "max": [
        205
      ],
      "min": [
        0
      ],
      "type": "SCALAR"
    },
    {
      "bufferView": 6,
      "componentType": 5126,
      "count": 59288,
      "max": [
        0.2745780944824219,
        15.239999771118164,
        0.019050000235438347
      ],
      "min": [
        -7.955021858215332,
        0,
        -0.09525000303983688
      ],
      "type": "VEC3"
    },
    {
      "bufferView": 7,
      "componentType": 5126,
      "count": 59288,
      "max": [
        1,
        1,
        0.9962063431739807
      ],
      "min": [
        -1,
        -1,
        -0.9962063431739807
      ],
      "type": "VEC3"
    },
    {
      "bufferView": 8,
      "componentType": 5125,
      "count": 70848,
      "max": [
        59287
      ],
      "min": [
        0
      ],
      "type": "SCALAR"
    },
    {
      "bufferView": 9,
      "componentType": 5126,
      "count": 40,
      "max": [
        0.43179917335510254,
        7.62000036239624,
        0.39008402824401855
      ],
      "min": [
        -8.344650268554688e-7,
        -7.619999408721924,
        -0.39008402824401855
      ],
      "type": "VEC3"
    },
    {
      "bufferView": 10,
      "componentType": 5126,
      "count": 40,
      "max": [
        1,
        1,
        1
      ],
      "min": [
        -1,
        -1,
        -1
      ],
      "type": "VEC3"
    },
    {
      "bufferView": 11,
      "componentType": 5125,
      "count": 60,
      "max": [
        39
      ],
      "min": [
        0
      ],
      "type": "SCALAR"
    },
    {
      "bufferView": 12,
      "componentType": 5126,
      "count": 40,
      "max": [
        0.4318000078201294,
        15.239999771118164,
        0
      ],
      "min": [
        0,
        0,
        -0.7801680564880371
      ],
      "type": "VEC3"
    },
    {
      "bufferView": 13,
      "componentType": 5126,
      "count": 40,
      "max": [
        1,
        1,
        1
      ],
      "min": [
        -1,
        -1,
        -1
      ],
      "type": "VEC3"
    },
    {
      "bufferView": 14,
      "componentType": 5125,
      "count": 60,
      "max": [
        39
      ],
      "min": [
        0
      ],
      "type": "SCALAR"
    },
    {
      "bufferView": 15,
      "componentType": 5126,
      "count": 80,
      "max": [
        0.12699998915195465,
        0,
        7.619999885559082
      ],
      "min": [
        -0.12700001895427704,
        -0.6794499754905701,
        -7.619999885559082
      ],
      "type": "VEC3"
    },
    {
      "bufferView": 16,
      "componentType": 5126,
      "count": 80,
      "max": [
        1,
        1,
        1
      ],
      "min": [
        -1,
        -1,
        -1
      ],
      "type": "VEC3"
    },
    {
      "bufferView": 17,
      "componentType": 5125,
      "count": 132,
      "max": [
        79
      ],
      "min": [
        0
      ],
      "type": "SCALAR"
    },
    {
      "bufferView": 18,
      "componentType": 5126,
      "count": 80,
      "max": [
        0.12699998915195465,
        0,
        7.619999885559082
      ],
      "min": [
        -0.12700001895427704,
        -0.6794499754905701,
        -7.619999885559082
      ],
      "type": "VEC3"
    },
    {
      "bufferView": 19,
      "componentType": 5126,
      "count": 80,
      "max": [
        1,
        1,
        1
      ],
      "min": [
        -1,
        -1,
        -1
      ],
      "type": "VEC3"
    },
    {
      "bufferView": 20,
      "componentType": 5125,
      "count": 132,
      "max": [
        79
      ],
      "min": [
        0
      ],
      "type": "SCALAR"
    },
    {
      "bufferView": 21,
      "componentType": 5126,
      "count": 80,
      "max": [
        0.12699998915195465,
        0,
        7.619999885559082
      ],
      "min": [
        -0.12700001895427704,
        -0.6794499754905701,
        -7.619999885559082
      ],
      "type": "VEC3"
    },
    {
      "bufferView": 22,
      "componentType": 5126,
      "count": 80,
      "max": [
        1,
        1,
        1
      ],
      "min": [
        -1,
        -1,
        -1
      ],
      "type": "VEC3"
    },
    {
      "bufferView": 23,
      "componentType": 5125,
      "count": 132,
      "max": [
        79
      ],
      "min": [
        0
      ],
      "type": "SCALAR"
    }
  ],
  "materials": [
    {
      "pbrMetallicRoughness": {
        "baseColorFactor": [
          0.8670237934377415,
          0.8670237934377415,
          0.8670237934377415,
          1
        ],
        "metallicFactor": 0,
        "roughnessFactor": 0.2
      },
      "name": "Masterpiece"
    },
    {
      "pbrMetallicRoughness": {
        "baseColorFactor": [
          0.8670237934377415,
          0.8670237934377415,
          0.8670237934377415,
          0.3
        ],
        "metallicFactor": 0,
        "roughnessFactor": 0.2
      },
      "alphaMode": "BLEND",
      "name": "Manhattan"
    },
    {
      "pbrMetallicRoughness": {
        "baseColorFactor": [
          0.8751375823652049,
          0.8751375823652049,
          0.8751375823652049,
          1
        ],
        "metallicFactor": 0,
        "roughnessFactor": 0.2
      },
      "name": "Belfast"
    },
    {
      "pbrMetallicRoughness": {
        "baseColorFactor": [
          0.8670237934377415,
          0.8670237934377415,
          0.8670237934377415,
          1
        ],
        "metallicFactor": 0,
        "roughnessFactor": 0.2
      },
      "name": "Clear Day"
    },
    {
      "pbrMetallicRoughness": {
        "baseColorFactor": [
          0.8670237934377415,
          0.8670237934377415,
          0.8670237934377415,
          1
        ],
        "metallicFactor": 0,
        "roughnessFactor": 0.2
      },
      "name": "Tulip"
    },
    {
      "pbrMetallicRoughness": {
        "baseColorFactor": [
          0.8670237934377415,
          0.8670237934377415,
          0.8670237934377415,
          1
        ],
        "metallicFactor": 0,
        "roughnessFactor": 0.2
      },
      "name": "Canberra"
    },
    {
      "pbrMetallicRoughness": {
        "baseColorFactor": [
          0.8670237934377415,
          0.8670237934377415,
          0.8670237934377415,
          1
        ],
        "metallicFactor": 0,
        "roughnessFactor": 0.2
      },
      "name": "Lagoon Glow"
    },
    {
      "pbrMetallicRoughness": {
        "baseColorFactor": [
          0.8670237934377415,
          0.8670237934377415,
          0.8670237934377415,
          1
        ],
        "metallicFactor": 0,
        "roughnessFactor": 0.2
      },
      "name": "Hampton"
    }
  ],
  "meshes": [
    {
      "primitives": [
        {
          "mode": 4,
          "attributes": {
            "POSITION": 0,
            "NORMAL": 1
          },
          "indices": 2,
          "material": 0
        }
      ]
    },
    {
      "primitives": [
        {
          "mode": 4,
          "attributes": {
            "POSITION": 3,
            "NORMAL": 4
          },
          "indices": 5,
          "material": 1
        }
      ]
    },
    {
      "primitives": [
        {
          "mode": 4,
          "attributes": {
            "POSITION": 6,
            "NORMAL": 7
          },
          "indices": 8,
          "material": 2
        }
      ]
    },
    {
      "primitives": [
        {
          "mode": 4,
          "attributes": {
            "POSITION": 9,
            "NORMAL": 10
          },
          "indices": 11,
          "material": 3
        }
      ]
    },
    {
      "primitives": [
        {
          "mode": 4,
          "attributes": {
            "POSITION": 12,
            "NORMAL": 13
          },
          "indices": 14,
          "material": 4
        }
      ]
    },
    {
      "primitives": [
        {
          "mode": 4,
          "attributes": {
            "POSITION": 15,
            "NORMAL": 16
          },
          "indices": 17,
          "material": 5
        }
      ]
    },
    {
      "primitives": [
        {
          "mode": 4,
          "attributes": {
            "POSITION": 18,
            "NORMAL": 19
          },
          "indices": 20,
          "material": 6
        }
      ]
    },
    {
      "primitives": [
        {
          "mode": 4,
          "attributes": {
            "POSITION": 21,
            "NORMAL": 22
          },
          "indices": 23,
          "material": 7
        }
      ]
    }
  ]
}