{"asset":{"version":"2.0","generator":"VECTARY"},"nodes":[{"translation":[0,0,0],"scale":[1,1,1],"rotation":[0,0,0,1],"name":"Bridge","children":[1,2,3,4,5]},{"translation":[-79.56501007080078,109.64576721191406,-18.293292999267578],"scale":[1,1,1],"rotation":[0,0.7071067811865475,0.7071067811865476,0],"name":"Box01","mesh":0},{"translation":[67.88196563720703,109.64576721191406,36.43349838256836],"scale":[1,1,1],"rotation":[0,0.7071067811865475,0.7071067811865476,0],"name":"Box02","mesh":1},{"translation":[67.88197326660156,109.64575958251953,-73.32903289794922],"scale":[1,1,1],"rotation":[0,0.7071067811865475,0.7071067811865476,0],"name":"Box03","mesh":2},{"translation":[8.595165252685547,124.81912231445312,36.58656692504883],"scale":[1,1,1],"rotation":[0,0.7071067811865475,0.7071067811865476,0],"name":"Box04","mesh":3},{"translation":[-130.07943725585938,95.1800308227539,-19.221080780029297],"scale":[1,1,1],"rotation":[0,0.7071067811865475,0.7071067811865476,0],"name":"Box06","mesh":4}],"materials":[{"pbrMetallicRoughness":{"baseColorFactor":[0.7686274509803921,0.7686274509803921,0.7686274509803921,1],"metallicFactor":0,"roughnessFactor":0},"name":"Haiti","emissiveFactor":[0,0,0],"alphaMode":"OPAQUE","doubleSided":false},{"pbrMetallicRoughness":{"baseColorFactor":[0.7686274509803921,0.7686274509803921,0.7686274509803921,1],"metallicFactor":0,"roughnessFactor":0},"name":"Clear Day","emissiveFactor":[0,0,0],"alphaMode":"OPAQUE","doubleSided":false},{"pbrMetallicRoughness":{"baseColorFactor":[0.7686274509803921,0.7686274509803921,0.7686274509803921,1],"metallicFactor":0,"roughnessFactor":0},"name":"Serena","emissiveFactor":[0,0,0],"alphaMode":"OPAQUE","doubleSided":false},{"pbrMetallicRoughness":{"baseColorFactor":[0.7686274509803921,0.7686274509803921,0.7686274509803921,1],"metallicFactor":0,"roughnessFactor":0},"name":"Retro","emissiveFactor":[0,0,0],"alphaMode":"OPAQUE","doubleSided":false},{"pbrMetallicRoughness":{"baseColorFactor":[0.7686274509803921,0.7686274509803921,0.7686274509803921,1],"metallicFactor":0,"roughnessFactor":0},"name":"Fusion Elixir","emissiveFactor":[0,0,0],"alphaMode":"OPAQUE","doubleSided":false}],"meshes":[{"primitives":[{"mode":4,"attributes":{"POSITION":1,"NORMAL":2},"material":0,"indices":0}]},{"primitives":[{"mode":4,"attributes":{"POSITION":4,"NORMAL":5},"material":1,"indices":3}]},{"primitives":[{"mode":4,"attributes":{"POSITION":7,"NORMAL":8},"material":2,"indices":6}]},{"primitives":[{"mode":4,"attributes":{"POSITION":10,"NORMAL":11},"material":3,"indices":9}]},{"primitives":[{"mode":4,"attributes":{"POSITION":13,"NORMAL":14},"material":4,"indices":12}]}],"accessors":[{"bufferView":0,"byteOffset":0,"componentType":5125,"count":36,"type":"SCALAR"},{"bufferView":1,"byteOffset":0,"componentType":5126,"count":24,"max":[240.61837768554688,53.63922119140625,10.3419189453125],"min":[-149.70672607421875,-53.639217376708984,0],"type":"VEC3"},{"bufferView":2,"byteOffset":0,"componentType":5126,"count":24,"type":"VEC3"},{"bufferView":3,"byteOffset":0,"componentType":5125,"count":36,"type":"SCALAR"},{"bufferView":4,"byteOffset":0,"componentType":5126,"count":24,"max":[388.0841369628906,6.761993408203125,15.0830078125],"min":[-2.3153305053710938,-6.761993408203125,0],"type":"VEC3"},{"bufferView":5,"byteOffset":0,"componentType":5126,"count":24,"type":"VEC3"},{"bufferView":6,"byteOffset":0,"componentType":5125,"count":36,"type":"SCALAR"},{"bufferView":7,"byteOffset":0,"componentType":5126,"count":24,"max":[388.0841064453125,6.761993408203125,15.0830078125],"min":[-2.315338134765625,-6.761993408203125,0],"type":"VEC3"},{"bufferView":8,"byteOffset":0,"componentType":5126,"count":24,"type":"VEC3"},{"bufferView":9,"byteOffset":0,"componentType":5125,"count":36,"type":"SCALAR"},{"bufferView":10,"byteOffset":0,"componentType":5126,"count":26,"max":[328.762939453125,5.235908508300781,18.27471923828125],"min":[-61.32205581665039,-5.0590667724609375,0],"type":"VEC3"},{"bufferView":11,"byteOffset":0,"componentType":5126,"count":26,"type":"VEC3"},{"bufferView":12,"byteOffset":0,"componentType":5125,"count":36,"type":"SCALAR"},{"bufferView":13,"byteOffset":0,"componentType":5126,"count":24,"max":[11.553848266601562,53.923973083496094,14.564567565917969],"min":[-11.469688415527344,-53.92396926879883,-1.6304855346679688],"type":"VEC3"},{"bufferView":14,"byteOffset":0,"componentType":5126,"count":24,"type":"VEC3"}],"bufferViews":[{"buffer":0,"byteOffset":0,"byteLength":144,"target":34963},{"buffer":0,"byteOffset":144,"byteLength":288,"target":34962},{"buffer":0,"byteOffset":432,"byteLength":288,"target":34962},{"buffer":0,"byteOffset":720,"byteLength":144,"target":34963},{"buffer":0,"byteOffset":864,"byteLength":288,"target":34962},{"buffer":0,"byteOffset":1152,"byteLength":288,"target":34962},{"buffer":0,"byteOffset":1440,"byteLength":144,"target":34963},{"buffer":0,"byteOffset":1584,"byteLength":288,"target":34962},{"buffer":0,"byteOffset":1872,"byteLength":288,"target":34962},{"buffer":0,"byteOffset":2160,"byteLength":144,"target":34963},{"buffer":0,"byteOffset":2304,"byteLength":312,"target":34962},{"buffer":0,"byteOffset":2616,"byteLength":312,"target":34962},{"buffer":0,"byteOffset":2928,"byteLength":144,"target":34963},{"buffer":0,"byteOffset":3072,"byteLength":288,"target":34962},{"buffer":0,"byteOffset":3360,"byteLength":288,"target":34962}],"scene":0,"scenes":[{"nodes":[0],"name":"Project Name"}],"extensionsUsed":["KHR_texture_transform"],"buffers":[{"byteLength":3648,"uri":"ProjectName.bin"}]}