{"asset":{"version":"2.0","generator":"VECTARY"},"nodes":[{"translation":[0,0,0],"scale":[0.00009999999999999999,0.00009999999999999999,0.00009999999999999999],"rotation":[0,0,0,1],"name":"Bridge.gltf","children":[1,2,3,4,5]},{"translation":[45.43741989135742,16.096221923828125,0.15447425842285156],"scale":[1,1,1],"rotation":[0,0.7071067811865475,0.7071067811865476,0],"name":"Box01","mesh":0},{"translation":[192.88439559936523,16.096221923828125,54.88126564025879],"scale":[1,1,1],"rotation":[0,0.7071067811865475,0.7071067811865476,0],"name":"Box02","mesh":1},{"translation":[192.88440322875977,16.096214294433594,-54.88126564025879],"scale":[1,1,1],"rotation":[0,0.7071067811865475,0.7071067811865476,0],"name":"Box03","mesh":2},{"translation":[133.59759521484375,31.269577026367188,55.03433418273926],"scale":[1,1,1],"rotation":[0,0.7071067811865475,0.7071067811865476,0],"name":"Box04","mesh":3},{"translation":[-5.077007293701172,1.6304855346679688,-0.7733135223388672],"scale":[1,1,1],"rotation":[0,0.7071067811865475,0.7071067811865476,0],"name":"Box06","mesh":4}],"materials":[{"pbrMetallicRoughness":{"baseColorFactor":[1,1,1,0.45],"baseColorTexture":{"index":0,"extensions":{"KHR_texture_transform":{"offset":[0,0],"scale":[1,1],"rotation":0}},"texCoord":0},"metallicRoughnessTexture":{"index":2,"extensions":{"KHR_texture_transform":{"offset":[0,0],"scale":[1,1],"rotation":0}},"texCoord":0},"metallicFactor":0,"roughnessFactor":1},"name":"Concrete","normalTexture":{"index":1,"scale":1,"extensions":{"KHR_texture_transform":{"offset":[0,0],"scale":[1,1],"rotation":0}},"texCoord":0},"emissiveFactor":[0,0,0],"alphaMode":"BLEND","doubleSided":false},{"pbrMetallicRoughness":{"baseColorFactor":[0.7686274509803921,0.7686274509803921,0.7686274509803921,1],"metallicFactor":0,"roughnessFactor":0},"name":"Material 1","emissiveFactor":[0,0,0],"alphaMode":"OPAQUE","doubleSided":false},{"pbrMetallicRoughness":{"baseColorFactor":[0.7686274509803921,0.7686274509803921,0.7686274509803921,1],"metallicFactor":0,"roughnessFactor":0},"name":"Material 2","emissiveFactor":[0,0,0],"alphaMode":"OPAQUE","doubleSided":false},{"pbrMetallicRoughness":{"baseColorFactor":[0.7686274509803921,0.7686274509803921,0.7686274509803921,1],"metallicFactor":0,"roughnessFactor":0},"name":"Material 3","emissiveFactor":[0,0,0],"alphaMode":"OPAQUE","doubleSided":false},{"pbrMetallicRoughness":{"baseColorFactor":[0.7686274509803921,0.7686274509803921,0.7686274509803921,1],"metallicFactor":0,"roughnessFactor":0},"name":"Material 4","emissiveFactor":[0,0,0],"alphaMode":"OPAQUE","doubleSided":false}],"textures":[{"sampler":0,"source":0},{"sampler":0,"source":1},{"sampler":0,"source":2}],"images":[{"uri":"Concrete_001_Color.jpg","mimeType":"image/jpeg"},{"uri":"Concrete_001_NormalMap.jpg","mimeType":"image/jpeg"},{"uri":"Concrete_001_Metalic&Concrete_001_Roughness.jpg","mimeType":"image/jpeg"}],"samplers":[{"wrapS":10497,"wrapT":10497}],"meshes":[{"primitives":[{"mode":4,"attributes":{"POSITION":1,"NORMAL":2,"TEXCOORD_0":3},"material":0,"indices":0}]},{"primitives":[{"mode":4,"attributes":{"POSITION":5,"NORMAL":6},"material":1,"indices":4}]},{"primitives":[{"mode":4,"attributes":{"POSITION":8,"NORMAL":9},"material":2,"indices":7}]},{"primitives":[{"mode":4,"attributes":{"POSITION":11,"NORMAL":12},"material":3,"indices":10}]},{"primitives":[{"mode":4,"attributes":{"POSITION":14,"NORMAL":15},"material":4,"indices":13}]}],"accessors":[{"bufferView":0,"byteOffset":0,"componentType":5125,"count":36,"type":"SCALAR"},{"bufferView":1,"byteOffset":0,"componentType":5126,"count":24,"max":[240.61837768554688,53.63922119140625,10.3419189453125],"min":[-149.70672607421875,-53.639217376708984,0],"type":"VEC3"},{"bufferView":2,"byteOffset":0,"componentType":5126,"count":24,"type":"VEC3"},{"bufferView":3,"byteOffset":0,"componentType":5126,"count":24,"type":"VEC2"},{"bufferView":4,"byteOffset":0,"componentType":5125,"count":36,"type":"SCALAR"},{"bufferView":5,"byteOffset":0,"componentType":5126,"count":24,"max":[388.0841369628906,6.761993408203125,15.0830078125],"min":[-2.3153305053710938,-6.761993408203125,0],"type":"VEC3"},{"bufferView":6,"byteOffset":0,"componentType":5126,"count":24,"type":"VEC3"},{"bufferView":7,"byteOffset":0,"componentType":5125,"count":36,"type":"SCALAR"},{"bufferView":8,"byteOffset":0,"componentType":5126,"count":24,"max":[388.0841064453125,6.761993408203125,15.0830078125],"min":[-2.315338134765625,-6.761993408203125,0],"type":"VEC3"},{"bufferView":9,"byteOffset":0,"componentType":5126,"count":24,"type":"VEC3"},{"bufferView":10,"byteOffset":0,"componentType":5125,"count":36,"type":"SCALAR"},{"bufferView":11,"byteOffset":0,"componentType":5126,"count":26,"max":[328.762939453125,5.235908508300781,18.27471923828125],"min":[-61.32205581665039,-5.0590667724609375,0],"type":"VEC3"},{"bufferView":12,"byteOffset":0,"componentType":5126,"count":26,"type":"VEC3"},{"bufferView":13,"byteOffset":0,"componentType":5125,"count":36,"type":"SCALAR"},{"bufferView":14,"byteOffset":0,"componentType":5126,"count":24,"max":[11.553848266601562,53.923973083496094,14.564567565917969],"min":[-11.469688415527344,-53.92396926879883,-1.6304855346679688],"type":"VEC3"},{"bufferView":15,"byteOffset":0,"componentType":5126,"count":24,"type":"VEC3"}],"bufferViews":[{"buffer":0,"byteOffset":0,"byteLength":144,"target":34963},{"buffer":0,"byteOffset":144,"byteLength":288,"target":34962},{"buffer":0,"byteOffset":432,"byteLength":288,"target":34962},{"buffer":0,"byteOffset":720,"byteLength":192,"target":34962},{"buffer":0,"byteOffset":912,"byteLength":144,"target":34963},{"buffer":0,"byteOffset":1056,"byteLength":288,"target":34962},{"buffer":0,"byteOffset":1344,"byteLength":288,"target":34962},{"buffer":0,"byteOffset":1632,"byteLength":144,"target":34963},{"buffer":0,"byteOffset":1776,"byteLength":288,"target":34962},{"buffer":0,"byteOffset":2064,"byteLength":288,"target":34962},{"buffer":0,"byteOffset":2352,"byteLength":144,"target":34963},{"buffer":0,"byteOffset":2496,"byteLength":312,"target":34962},{"buffer":0,"byteOffset":2808,"byteLength":312,"target":34962},{"buffer":0,"byteOffset":3120,"byteLength":144,"target":34963},{"buffer":0,"byteOffset":3264,"byteLength":288,"target":34962},{"buffer":0,"byteOffset":3552,"byteLength":288,"target":34962}],"scene":0,"scenes":[{"nodes":[0],"name":"Bridge"}],"extensionsUsed":["KHR_texture_transform"],"buffers":[{"byteLength":3840,"uri":"Bridge.bin"}]}